<svg xmlns="http://www.w3.org/2000/svg" viewBox="0 0 234.34 296.1"><defs><style>.cls-1{fill:#fff;}.cls-2{fill:#140000;}.cls-3{fill:#ffa400;}.cls-4{fill:#e2231a;}</style></defs><g id="Layer_2" data-name="Layer 2"><g id="Camada_1" data-name="Camada 1"><path d="M234.33,124.33V65.6l-3.6,1c-.32.09-32.48,9.15-46-5-15.53-16.22-2.93-47.07-2.8-47.38L183,11.61l-2.64-1.07a150.39,150.39,0,0,0-28.8-7.61A228.1,228.1,0,0,0,117.21,0h0A227.1,227.1,0,0,0,82.8,2.93,150.93,150.93,0,0,0,54,10.54l-2.64,1.07,1.1,2.63c.13.31,12.76,31.13-2.81,47.38-13.54,14.15-45.72,5.11-46,5L0,65.6v58.69c0,2.44-.56,60.27,29.79,102.77,39.75,55.67,84.74,68.33,86.63,68.84l.74.2.73-.2c1.9-.51,46.89-13.17,86.63-68.84,30.36-42.5,29.84-100.33,29.8-102.73"/><path class="cls-1" d="M228.69,73c-9.47,2.13-35,6.23-48.08-7.43C173,57.62,170,45.8,171.78,31.35a83.6,83.6,0,0,1,3.86-16.53,158.46,158.46,0,0,0-25-6.34,225.36,225.36,0,0,0-33.42-2.84h0A228.24,228.24,0,0,0,83.75,8.48a158.66,158.66,0,0,0-25.06,6.34,82.76,82.76,0,0,1,3.87,16.53c1.79,14.45-1.27,26.27-8.83,34.17C40.65,79.18,15.11,75.08,5.64,73v51.38c0,.62-.5,58.49,28.75,99.46C54.58,252.06,76.3,268.71,91,277.7c13.47,8.26,23.49,11.69,26.21,12.54,2.74-.86,12.9-4.35,26.43-12.67,14.6-9,36.23-25.61,56.35-53.78,29.28-41,28.75-98.84,28.74-99.42ZM13,124.48V81.73C26.32,83.53,46.61,83.55,59,70.59c14.71-15.36,12-37.89,8.74-51A160.18,160.18,0,0,1,85,15.71,219.42,219.42,0,0,1,117.18,13h0a219.8,219.8,0,0,1,32.18,2.74,159.06,159.06,0,0,1,17.21,3.92c-2,8-3.8,19.54-1.5,30.81l-140,140C12.73,157.62,13,124.9,13,124.48m181,95.05c-31.47,44.06-67,59.39-76.84,63-7.83-2.79-31.72-12.92-57.11-39.25L221.36,81.91v42.56c0,.56.41,56.14-27.38,95.06"/><path class="cls-1" d="M163.52,143.38V143l-.05,0Z"/><path class="cls-1" d="M68.58,180.55l.14-.08-.09,0,0,.05"/><polyline class="cls-2" points="160.94 108.2 160.94 108.19 160.94 108.19 160.94 108.2"/><path class="cls-1" d="M105.8,256.88c-3-2.29-4.59-5.26-4.59-8.37a9.37,9.37,0,0,1,1.33-4.75l-2.34-5.54A15.06,15.06,0,0,0,96,248.51c0,4.77,2.35,9.2,6.62,12.49a23.25,23.25,0,0,0,9,4.17l-2.72-6.42A16.75,16.75,0,0,1,105.8,256.88Z"/><path class="cls-1" d="M130.74,227.52l-1.3,3.07a36.64,36.64,0,0,1,4.93,1.71l2.15-5.08a6.29,6.29,0,0,1,2.93-3.25H130a3,3,0,0,1,.76,3.43A1.34,1.34,0,0,0,130.74,227.52Z"/><path class="cls-1" d="M125,254.54h-5.66l-2.14,5.06-13.6-32.11,0-.07v0a3,3,0,0,1,.76-3.43H94.88a6.29,6.29,0,0,1,2.93,3.25L117.17,273Z"/><path class="cls-1" d="M133.56,234.22a35,35,0,0,0-4.94-1.69c-.67-.18-1.36-.34-2.05-.49a43.93,43.93,0,0,0-8.83-.88h-.25a26.51,26.51,0,0,0-9.35,1.76l2,4.8a21.33,21.33,0,0,1,7.57-1.35h.14a39.54,39.54,0,0,1,6.61.58c.71.12,1.4.26,2.08.43a30,30,0,0,1,5,1.63c.29.12.87.39.88.4a3.74,3.74,0,0,1,1,.7,3.68,3.68,0,0,1,1.06,2.19h0c0,.07,0,.11,0,.11l.9-1.31h0l3-4.28a24.43,24.43,0,0,0-2.87-1.71C134.84,234.79,134.21,234.49,133.56,234.22Z"/><path class="cls-1" d="M128.37,240.05c-.85-.28-1.72-.52-2.62-.72l-2.47,5.82h5.65l1.79-4.22C130,240.61,129.18,240.31,128.37,240.05Z"/><path class="cls-1" d="M116.73,252.45h16.19v4.91a30.08,30.08,0,0,1-8,2.64l-2.37,5.61a34.89,34.89,0,0,0,15.53-5.24l.06,0V247.24H114.51Z"/><path class="cls-1" d="M64.26,127.46a28.15,28.15,0,0,1-5.83,3L55.71,126c.84-.29,2.56-1,2.7-1.11l.05,0a3.33,3.33,0,0,0,.85-.64A3.68,3.68,0,0,0,60.38,122a1.16,1.16,0,0,0,0-.13Z"/><path class="cls-1" d="M43.76,127.91h-.08a22.63,22.63,0,0,1-4.15-.39c-.71-.14-1.41-.31-2.09-.51a18.11,18.11,0,0,1-5.21-2.52l-.49-.36a14.67,14.67,0,0,1-1.59-1.43,9.54,9.54,0,0,1,0-13.87v-6.67q-.82.53-1.59,1.11c-4.27,3.29-6.62,7.73-6.62,12.49s2.35,9.21,6.62,12.5c.51.39,1,.76,1.59,1.1a22.3,22.3,0,0,0,2.08,1.18,24.62,24.62,0,0,0,5.21,1.86c.69.16,1.38.3,2.09.4a27.5,27.5,0,0,0,4.08.32h.08a44.39,44.39,0,0,0,5.19-.3l-3-5C45.2,127.88,44.48,127.9,43.76,127.91Z"/><path class="cls-1" d="M32.23,132.84V135a5.8,5.8,0,0,1-2.85,5.14H40.19a5.81,5.81,0,0,1-2.75-5.08s0-.09,0-.13h0v-.41A27.62,27.62,0,0,1,32.23,132.84Z"/><path class="cls-1" d="M58.8,135.2S51.34,122.7,51,122.13a11.83,11.83,0,0,0-3.26-3.8,13.83,13.83,0,0,0,8.08-10.49,29.52,29.52,0,0,0-5.06-1.45c-.5,4.31-3.72,7.65-7.62,7.65H37.44V96.41h3.93c.66,0,1.32-.08,2-.09h.32A45.54,45.54,0,0,1,53.9,97.47,12.67,12.67,0,0,0,43.15,91.2H29.35a5.78,5.78,0,0,1,2.88,5.16v0h0v25.41c.25.22.51.44.79.66a15.54,15.54,0,0,0,4.42,2.33v-5.56H40a6.65,6.65,0,0,1,2.55.5,6.41,6.41,0,0,1,2.31,2.2l10.85,18.21h8.83A11.28,11.28,0,0,1,58.8,135.2Z"/><path class="cls-1" d="M64.27,104.07l-3.87,5.58a3.65,3.65,0,0,0-1.07-2.27,3.37,3.37,0,0,0-.93-.68l-.31-.16c-.65-.31-1.34-.59-2-.85a33.34,33.34,0,0,0-5.25-1.43c-.71-.13-1.42-.24-2.15-.33a40.1,40.1,0,0,0-4.82-.31h-.14a21.82,21.82,0,0,0-4.16.39V98.72c.63-.09,1.27-.17,1.91-.22s1.33-.09,2-.09h.25a45.64,45.64,0,0,1,4.56.23,42.37,42.37,0,0,1,6.85,1.28c.83.23,1.64.49,2.44.77A29,29,0,0,1,64.27,104.07Z"/><path d="M152,186.1a57.06,57.06,0,0,0,4.16-8.23c9.55-6.18,18.16-17.1,22.54-31a70.92,70.92,0,0,0-.64-42.57H165.24a38.31,38.31,0,0,0,3.58-8c.25-.8.46-1.59.65-2.39,1.89-8,1.07-15.8-3.76-21.81-4.52-5.63-11.67-8.5-19-9.34a14.68,14.68,0,0,0-1.43-8.34,16.48,16.48,0,0,0-7.73-7.9l-.44-.23A34.6,34.6,0,0,0,123.16,43V25.42a3.59,3.59,0,0,0-7.18,0,4,4,0,0,0,0,.48h0a33.06,33.06,0,0,0-6.35,1.7,32.63,32.63,0,0,0-7.73,4.17v2.79c-.92.51-1.79,1-2.63,1.63-1.8,1.23-9,6.33-11.83,13.61a51,51,0,0,1,7.95-3.43c6.36-2.23,13-3.16,15.82-2.58a78.65,78.65,0,0,0-18.55,5.53s-5.47,2.6-5.77,2.76c.28.18.56.37.83.58a11,11,0,0,1,1,.9,13.68,13.68,0,0,1,3.78,11.32,20.75,20.75,0,0,1-3.09,8.9,23.93,23.93,0,0,1-2.12,2.91H77.71a19.67,19.67,0,0,1,4.06,4.83c0,.1.11.19.17.3a23.07,23.07,0,0,1,2.52,6.49A25.34,25.34,0,0,1,85,95.44H63.77a18.15,18.15,0,0,1,1.9,2.46,36.66,36.66,0,0,1,4.46,10.49,63.84,63.84,0,0,1,1.48,6.88,93.6,93.6,0,0,1,.76,21.54c-1.22,16.27-6,30.22-12.18,37.35a168.14,168.14,0,0,1,19.32-9.48,56.22,56.22,0,0,1-10.76,15.9,183.14,183.14,0,0,1,17.46-7.94c.61,10.53,5.35,19.52,12.07,24.1-.66-.16-1.32-.32-1.94-.52a19.33,19.33,0,0,1-1.94-.7,15,15,0,0,1-1.46-.67,11.42,11.42,0,0,1-10,5.94,11.43,11.43,0,0,1-7-2.45,13.39,13.39,0,0,1-2,2l-.25.21A12.73,12.73,0,0,1,72,201.76a14.08,14.08,0,0,1-2.24,1.1,13.86,13.86,0,0,1-7.94.58,11.41,11.41,0,0,0,6.37,2,11.05,11.05,0,0,0,3-.39,11.47,11.47,0,0,0,1.29-.43,11.76,11.76,0,0,0,3.22-1.94,12.72,12.72,0,0,0,18-1.5,13.15,13.15,0,0,1-12.3,8.93,12.67,12.67,0,0,1-7.73-2.64c2.73,5,8.7,8.47,15.62,8.47a19.31,19.31,0,0,0,10-2.73,15.36,15.36,0,0,0,9.54,3.17,15,15,0,0,0,10.63-4.14,13,13,0,0,0,8.54,3.24,13.34,13.34,0,0,0,10.84-5.78,21.65,21.65,0,0,0,12.58,3.9c7.79,0,14.53-3.9,17.77-9.58a17,17,0,0,1-5.63,1c-5.6,0-10.48-2.65-13-6.54a17.09,17.09,0,0,1-8.91,2.15,15,15,0,0,1-3.41-.55C143.16,197.39,148,192.53,152,186.1Z"/><path class="cls-1" d="M97.88,85A48.73,48.73,0,0,0,101.11,79H82.32a28.22,28.22,0,0,1,5.39,17v.23A44.4,44.4,0,0,0,97.88,85Z"/><path class="cls-1" d="M95,44.55c.79-.3,1.59-.58,2.38-.83a50,50,0,0,1,15.28-2.53,20.14,20.14,0,0,0-7.14-1.82,25.92,25.92,0,0,1,11.13-1.32,4.68,4.68,0,0,1-2.1-3.67,8.53,8.53,0,0,1,.81-4.48,9.43,9.43,0,0,1,.83-1.42,27.66,27.66,0,0,0-8.65,2.7,29.45,29.45,0,0,0-3.25,1.9v3.2l-.34.14a30.41,30.41,0,0,0-4,2,27.62,27.62,0,0,0-2.59,1.71,1,1,0,0,0-.17.12,27.94,27.94,0,0,0-5.89,5.85c.55-.25,1.11-.5,1.68-.74S94.31,44.8,95,44.55Z"/><path class="cls-1" d="M120.78,25.62a1.21,1.21,0,1,0-2.41,0V42.89c.82.12,1.62.25,2.41.42Z"/><path class="cls-1" d="M178.87,123.45a69.33,69.33,0,0,0-2.54-15.87c-.06-.22-.13-.45-.2-.66H160.79c4-6.09,6.38-12.16,7-17.75a20.67,20.67,0,0,0-2.37-13C161.64,69.58,154,65.87,144.27,65a15,15,0,0,0-.74-8.9c-5.06-12.08-26.38-14.65-47.6-5.75-1.86.78-3.67,1.63-5.4,2.53a13.74,13.74,0,0,1,2.3,2.56,14.52,14.52,0,0,1,2.36,9.9,18.76,18.76,0,0,1-.33,2.06,22.37,22.37,0,0,1-3.26,7.55,71.88,71.88,0,0,1,6.57-4.82c.55-.35,1.09-.7,1.65-1,1.15-.72,2.35-1.41,3.57-2.08,16.65-9.09,32.73-10,36.4-2.22a71.72,71.72,0,0,0-16,1.87,100.7,100.7,0,0,0-18.7,6.26c-.51.31-1,.63-1.5,1a27.45,27.45,0,0,1,2.89,23,27,27,0,0,1-2.19,5,52.27,52.27,0,0,1-3.83,5.26,75.22,75.22,0,0,0,1-9.14H68.94c.74,1.34,1.52,3,2.16,4.43a60.33,60.33,0,0,1,3.79,13.21,80.9,80.9,0,0,1,.4,23.87,86.44,86.44,0,0,1-2,10.39,73.3,73.3,0,0,1-7.49,18.67,137.91,137.91,0,0,1,15.54-7.93l.18-.43a1.17,1.17,0,0,1,0-.11s0,0,0,0c.74-2.12,3.12-10.14,3.12-26.31,0-18.62-3.53-26.64-3.75-27.12h0s0,0,0,0a24.89,24.89,0,0,1,6.54,8.5c.41.85.8,1.73,1.15,2.64,3.29,8.55,3.77,19.79.76,31.37-.1.4-.22.81-.33,1.21s-.3,1.05-.46,1.57q-.89,2.9-2,5.6c-.17.4-.33.8-.51,1.2h0A55.12,55.12,0,0,1,75.44,175a158.87,158.87,0,0,1,18-7.63l1.67-.59c17.5-6,34.11-8.6,46-7.78v-1.87l23.26-17.53h3.26v3.92L151.54,160l-.17.92c5.21,1.18,9,4.09,9.51,7.94a6.91,6.91,0,0,1-.29,3.09C172.47,160.59,179.73,143,178.87,123.45Zm-74.31-16.53c1.63-.85,3.31-1.67,5-2.44,22-9.84,43.37-9.32,47.63,1.17a7.84,7.84,0,0,1,.41,1.27Z"/><path class="cls-1" d="M128.9,210.07a16.84,16.84,0,0,1-7.44-1.69,9.22,9.22,0,0,0,7.21,4.41,9,9,0,0,0,7.05-3.44,10.9,10.9,0,0,0,.83-1.07,14.39,14.39,0,0,1-1.75.75A17.1,17.1,0,0,1,128.9,210.07Z"/><path class="cls-1" d="M151.73,210.22a11.8,11.8,0,0,1-5.63-2.1,17.68,17.68,0,0,1-3.07,1.16,12.19,12.19,0,0,0,6.22,2.48,12.43,12.43,0,0,0,9.09-2.82A11.72,11.72,0,0,1,151.73,210.22Z"/><path class="cls-1" d="M146,203.93a10.29,10.29,0,0,0,3,2.4,13,13,0,0,0,10.21.61,13.36,13.36,0,0,1-8-2.38,10.49,10.49,0,0,1-2.57-2.66,23.93,23.93,0,0,0,1.81-1.82,21.46,21.46,0,0,1-2.22,1.18,20.29,20.29,0,0,1-3.31,1.15,17.93,17.93,0,0,1-2.26.42c-.32,0-.65.07-1,.08a16.2,16.2,0,0,1-2.7,0l-.67-.08a13.7,13.7,0,0,1-7.8-3.84,13.27,13.27,0,0,1-2.21-2.93,11.82,11.82,0,0,1-.71-1.48c-.1-.24-.19-.48-.27-.73a19,19,0,0,1-1.48,1.79,20.3,20.3,0,0,1-5.49,4c-.55.29-1.12.55-1.71.79s-1.29.5-2,.71a22.64,22.64,0,0,1-2.26.59c-.68.15-1.38.27-2.09.36a24.29,24.29,0,0,1-9.27-.57c-.43-.12-.86-.24-1.27-.39a13.71,13.71,0,0,0,1.31,1.22,15.09,15.09,0,0,0,11.64,3.53,14.29,14.29,0,0,0,2.39-.52,2.8,2.8,0,0,0,.31-.09,13.2,13.2,0,0,0,2-.85l.38-.19a15.9,15.9,0,0,0,6.22-6.17,10.86,10.86,0,0,0,3.54,6.36l.22.19a10.94,10.94,0,0,0,7.53,2.31,14.69,14.69,0,0,0,1.6-.16,12.07,12.07,0,0,0,1.3-.28,16.6,16.6,0,0,0,3-1A20,20,0,0,0,146,203.93Z"/><path class="cls-1" d="M101.26,208.3a10.92,10.92,0,0,1-2.14-1.51,10.05,10.05,0,0,1-8.57,5,9.64,9.64,0,0,1-1.08-.06,9.73,9.73,0,0,0,10.12-1.6,10.63,10.63,0,0,0,7.86,3.31,10.05,10.05,0,0,0,9.45-5.83,14.6,14.6,0,0,1-8.38,2.47A15.17,15.17,0,0,1,101.26,208.3Z"/><path class="cls-3" d="M100.31,178.53a4.34,4.34,0,0,0,3.5-1,.93.93,0,0,1-.23,0c-2.15-.45-3.48-3.1-3.54-6.51l-3.45,1.25C96.79,175.55,98.16,178.07,100.31,178.53Z"/><path class="cls-3" d="M136.25,199.28c4.88-8.75,9.37-21.34,12.26-35.63.23-1.12.44-2.23.64-3.33l-3.73-.63,18.94-16V142l-20.91,16.34h0c0,.92,0,1.83-.07,2.75-.54,15.49-3.61,29.23-7.9,37.85Z"/><path class="cls-3" d="M137.84,198.49a34.72,34.72,0,0,0,7.23-6.6c-.39-.51-.81-1-1.24-1.54s-.73-.83-1.09-1.22A73,73,0,0,1,137.84,198.49Z"/><path class="cls-3" d="M146.62,190q1.08-1.41,2.1-3c-.57-.94-1.26-2-2-3.07-.4-.58-.83-1.15-1.24-1.68-.56,1.54-1.13,3-1.72,4.46.6.62,1.26,1.35,1.89,2.1C146,189.18,146.31,189.57,146.62,190Z"/><path class="cls-3" d="M150.14,184.7c.58-1,1.14-2,1.67-3-.54-1.16-1.31-2.73-2.15-4.2-.56-1-1.17-1.94-1.7-2.73q-.74,2.46-1.52,4.79c.67.82,1.51,1.89,2.28,3C149.22,183.26,149.7,184,150.14,184.7Z"/><path class="cls-3" d="M154.12,176.68l.24-.62a33.16,33.16,0,0,0-4.19-9.66c-.42,1.82-.88,3.61-1.35,5.35.51.72,1.81,2.59,2.93,4.54.51.89,1,1.79,1.4,2.63C153.49,178.18,153.81,177.44,154.12,176.68Z"/><path class="cls-3" d="M110.27,197.21a40.27,40.27,0,0,0,4.55-.85c.68-.18,1.34-.37,2-.58,5.1-1.61,9.21-4.21,11.55-7.22a13.87,13.87,0,0,0,3.17,7.19,10.5,10.5,0,0,0,.72.79c.24.24.5.46.76.68s.39.33.59.48a66.13,66.13,0,0,0,3.84-10.88,77.07,77.07,0,0,0-16.1,3.4,143.35,143.35,0,0,0-17.89,7.23l1,.05,1.36,0A39.94,39.94,0,0,0,110.27,197.21Z"/><path class="cls-3" d="M97.41,193.29a27.54,27.54,0,0,0,3.3,2.67,152.4,152.4,0,0,1,19.87-8.15,75.09,75.09,0,0,1,17.5-3.57c.46-2,.88-4,1.25-6.19a62.1,62.1,0,0,0-16.56,3.47A145.87,145.87,0,0,0,97.41,193.29Z"/><path class="cls-3" d="M95.62,191.4A150.47,150.47,0,0,1,122,179.12c9.22-3.1,15.47-3.56,17.78-3.61.29-2,.55-4.07.76-6.19a52.39,52.39,0,0,0-16.29,3.49c-11.23,4.1-16.88,8.05-16.93,8.08s4.48-6.23,16.06-10.46c8.65-3.16,14.78-3.63,17.38-3.65.14-1.72.24-3.46.31-5.23a83.79,83.79,0,0,0-30,10l-1.54.86h0c-.06.2-.12.4-.17.59-1.65,5.37-5.9,8.9-9.52,7.89-2.86-.8-4.46-4.23-4.17-8.3l-7,2.54h0a28.1,28.1,0,0,0,3.08,10.51A28.73,28.73,0,0,0,95.62,191.4Z"/><path class="cls-4" d="M135.84,127.81a21.08,21.08,0,0,1,9.79-14.76h-26a21.08,21.08,0,0,1,9.79,14.76A21.08,21.08,0,0,1,114.67,118v26a21.08,21.08,0,0,1,14.76-9.79A21.08,21.08,0,0,1,119.64,149h26a21.08,21.08,0,0,1-9.79-14.76A21.08,21.08,0,0,1,150.6,144V118a21.08,21.08,0,0,1-14.76,9.79"/></g></g></svg>